<svg xmlns="http://www.w3.org/2000/svg" viewBox="-200 -866 2844 2844" preserveAspectRatio="xMidYMid meet">
<style>
.t { fill: #17244e; }
.c { fill: #8bb9ee; }
@media (prefers-color-scheme: dark) {
  .t { fill: #faf5ea; }
}
</style>
<circle class="c" cx="2067" cy="236" r="168"/>
<g class="t" transform="translate(0.000000,1112.000000) scale(0.100000,-0.100000)" stroke="none">
<path d="M20460 10399 c-30 -5 -100 -16 -155 -24 -158 -25 -406 -105 -465
-150 -8 -6 -44 -26 -79 -44 -203 -104 -465 -371 -583 -596 -76 -145 -116 -232
-141 -310 -14 -44 -36 -111 -49 -150 -26 -80 -34 -546 -11 -630 6 -22 27 -101
46 -176 105 -414 448 -841 817 -1016 93 -44 297 -123 319 -123 10 0 40 -7 67
-15 27 -9 112 -22 189 -30 400 -42 703 10 1044 178 160 80 262 157 426 322
281 284 438 580 475 899 6 50 16 112 22 140 26 124 -24 450 -95 616 -59 140
-108 228 -226 410 -40 62 -325 357 -380 393 -106 70 -156 99 -251 144 -134 65
-109 56 -325 112 -36 10 -101 21 -296 51 -77 12 -271 11 -349 -1z"/>
<path d="M16152 8850 c-68 -10 -138 -26 -157 -34 -18 -9 -39 -16 -47 -16 -7 0
-26 -9 -43 -20 -16 -11 -37 -20 -45 -20 -8 0 -43 -18 -78 -40 -34 -22 -67 -40
-73 -40 -5 0 -56 -46 -112 -102 -112 -113 -177 -221 -197 -326 -5 -29 -14 -61
-20 -72 -17 -31 -12 -245 6 -309 72 -245 128 -347 244 -448 57 -50 133 -103
148 -103 5 0 17 -9 27 -20 10 -11 26 -20 35 -20 10 0 29 -9 43 -20 14 -11 30
-20 37 -20 6 0 25 -7 41 -16 108 -55 533 -55 665 2 46 19 109 46 144 63 50 23
148 92 201 143 120 113 180 227 240 448 75 282 -90 651 -371 831 -210 135
-428 179 -688 139z"/>
<path d="M2295 8800 c-83 -4 -116 -9 -135 -22 -13 -10 -34 -18 -46 -18 -12 0
-27 -7 -34 -15 -6 -8 -21 -17 -32 -21 -145 -46 -349 -323 -369 -502 -4 -40
-10 -76 -13 -80 -3 -5 -6 -304 -8 -666 -2 -474 -6 -660 -14 -667 -6 -5 -103
-11 -215 -14 -154 -3 -213 -8 -241 -19 -21 -9 -49 -16 -62 -16 -117 0 -365
-203 -446 -365 -63 -126 -94 -370 -56 -443 9 -17 16 -38 16 -47 0 -35 93 -175
152 -230 177 -164 366 -221 716 -214 110 2 125 0 142 -17 19 -19 20 -57 24
-1469 5 -1327 10 -1590 31 -1625 3 -5 10 -46 16 -92 5 -46 16 -96 24 -113 7
-16 17 -48 21 -70 4 -22 13 -49 20 -60 8 -11 14 -29 14 -40 0 -11 8 -36 19
-55 10 -19 21 -45 25 -58 7 -22 85 -160 116 -207 8 -12 24 -35 35 -51 112
-167 311 -366 447 -449 9 -5 37 -25 63 -42 25 -18 51 -33 56 -33 6 0 22 -9 36
-20 14 -11 34 -20 43 -20 10 0 23 -7 30 -15 7 -8 17 -15 22 -15 5 0 46 -16 91
-36 78 -35 106 -44 242 -79 33 -8 78 -19 100 -25 293 -76 861 -91 1260 -35 66
9 135 23 153 31 18 8 41 14 51 14 56 0 290 123 365 191 202 185 242 537 93
815 -20 38 -184 194 -204 194 -7 0 -24 7 -36 14 -93 61 -276 88 -667 96 -302
7 -341 9 -400 29 -36 11 -74 21 -85 21 -82 1 -288 174 -342 289 -7 14 -17 33
-21 41 -23 40 -52 112 -73 185 l-24 80 -3 1295 c-1 726 1 1301 6 1308 7 11
101 13 486 12 383 0 494 2 559 14 45 8 109 19 142 25 189 30 418 188 459 318
4 11 13 27 21 33 8 7 15 25 15 41 0 15 9 44 21 64 20 33 21 46 17 183 -4 152
-5 153 -62 272 -80 167 -276 330 -431 359 -27 5 -63 16 -80 23 -24 10 -146 13
-580 13 -302 0 -555 3 -561 7 -8 5 -12 190 -13 640 -2 735 -10 821 -99 982
-57 104 -254 296 -303 296 -6 0 -22 9 -36 20 -14 11 -34 20 -44 20 -10 0 -40
8 -66 19 -55 21 -178 29 -348 21z"/>
<path d="M20515 6820 c-391 -37 -620 -73 -765 -120 -30 -10 -72 -21 -92 -24
-20 -4 -50 -13 -65 -21 -15 -8 -34 -15 -41 -15 -7 0 -29 -8 -50 -19 -20 -10
-56 -22 -79 -26 -23 -3 -47 -13 -54 -21 -6 -8 -22 -14 -34 -14 -12 0 -34 -9
-48 -20 -14 -11 -29 -20 -34 -20 -11 0 -107 -49 -168 -85 -22 -13 -47 -27 -55
-32 -8 -4 -33 -20 -55 -35 -22 -16 -51 -36 -65 -45 -135 -90 -348 -295 -426
-409 -22 -31 -55 -79 -75 -108 -37 -52 -169 -303 -169 -321 -1 -5 -9 -28 -20
-50 -11 -22 -19 -47 -20 -55 0 -8 -9 -42 -19 -75 -11 -33 -29 -105 -41 -160
-12 -55 -28 -127 -35 -160 -45 -188 -55 -585 -54 -2060 1 -1400 1 -1407 50
-1565 85 -272 312 -476 584 -525 433 -79 861 157 968 534 l22 76 1 1545 c0
1710 0 1687 66 1890 57 173 159 305 337 434 93 68 243 136 299 136 10 0 23 5
29 11 17 17 359 50 408 39 22 -5 95 -11 162 -14 67 -3 132 -10 145 -17 12 -6
44 -18 72 -25 74 -19 147 -47 176 -67 13 -9 31 -17 38 -17 35 0 206 -149 289
-251 114 -142 167 -258 192 -424 6 -38 16 -86 23 -105 8 -26 13 -408 18 -1495
7 -1493 11 -1631 47 -1730 8 -22 18 -53 22 -70 42 -163 239 -339 464 -416 122
-41 364 -48 496 -12 31 8 70 18 86 22 56 14 175 79 238 130 114 93 173 184
223 346 34 108 28 3324 -6 3463 -5 23 -16 81 -24 130 -21 126 -77 329 -103
367 -7 11 -13 29 -13 40 0 11 -9 34 -20 50 -11 17 -20 37 -20 46 0 9 -9 28
-20 42 -11 14 -20 32 -20 40 0 7 -9 22 -20 32 -11 10 -20 25 -20 33 0 8 -17
40 -37 71 -21 31 -42 63 -48 73 -5 9 -25 37 -42 63 -18 25 -33 49 -33 52 0 36
-284 330 -380 394 -209 139 -237 156 -415 244 -158 78 -222 105 -335 140 -25
7 -65 20 -90 29 -46 15 -102 30 -180 47 -25 6 -70 17 -100 25 -75 20 -233 43
-365 55 -60 5 -143 14 -184 19 -105 14 -409 20 -516 10z"/>
<path d="M6085 6813 c-182 -16 -326 -67 -446 -159 -78 -60 -199 -193 -199
-219 0 -11 -7 -30 -15 -42 -38 -55 -64 -258 -44 -343 6 -25 17 -74 24 -110 7
-36 18 -81 25 -100 6 -19 16 -48 22 -65 6 -16 17 -50 26 -75 8 -25 21 -52 29
-61 7 -8 13 -26 13 -40 0 -13 9 -39 20 -57 11 -18 20 -40 20 -50 0 -9 8 -33
19 -52 10 -19 21 -51 25 -71 4 -21 13 -42 21 -49 8 -7 15 -21 15 -31 0 -10 8
-38 19 -61 10 -24 24 -59 31 -78 32 -92 42 -117 54 -145 19 -42 76 -184 89
-220 5 -16 27 -70 48 -120 20 -49 40 -99 42 -110 3 -11 21 -58 40 -105 33 -83
45 -114 73 -195 8 -22 21 -52 29 -67 8 -14 15 -34 15 -43 0 -10 8 -36 19 -59
29 -64 61 -150 61 -165 0 -7 7 -25 15 -39 8 -15 26 -58 40 -97 14 -38 33 -86
42 -105 8 -19 29 -75 45 -125 16 -49 36 -105 44 -122 8 -18 20 -48 28 -65 15
-32 50 -125 85 -223 37 -105 44 -122 68 -185 13 -36 29 -81 35 -100 5 -19 14
-39 18 -45 9 -11 44 -100 90 -225 18 -47 43 -114 56 -150 14 -36 29 -78 34
-94 5 -17 26 -71 45 -120 20 -50 45 -116 56 -146 11 -30 29 -74 40 -98 10 -23
19 -47 19 -53 0 -6 7 -25 15 -42 8 -18 23 -57 34 -87 49 -144 94 -266 100
-275 4 -5 17 -37 30 -70 29 -78 71 -164 82 -171 5 -3 18 -23 29 -45 51 -100
223 -250 375 -328 284 -145 726 -130 990 34 161 100 242 175 320 295 67 104
147 287 176 405 8 34 36 111 68 190 5 11 30 88 56 170 26 83 56 171 66 197 11
26 19 56 19 67 0 12 9 38 20 58 11 21 20 50 20 65 0 16 9 45 20 65 11 21 20
47 20 59 0 12 9 41 20 65 11 24 20 55 20 69 0 14 9 39 20 55 11 17 20 43 20
58 0 15 7 41 15 56 8 16 17 48 21 72 4 24 15 58 25 75 11 17 19 44 19 60 0 16
9 43 20 59 11 17 20 45 20 64 0 19 7 42 15 51 9 10 20 39 24 66 5 27 16 63 25
79 9 17 16 40 16 52 0 12 9 45 20 73 11 28 20 58 20 68 1 9 9 35 20 57 11 22
19 50 20 63 0 12 9 39 20 59 11 21 20 50 20 65 0 16 9 45 20 65 11 21 20 52
20 69 0 17 7 37 15 44 7 6 17 33 20 58 4 26 16 65 26 88 10 22 19 51 19 65 0
13 7 34 15 47 9 12 19 45 22 74 3 29 12 63 20 77 7 15 13 35 13 46 0 28 28 65
49 65 26 0 41 -20 41 -54 0 -17 9 -50 19 -72 10 -23 22 -55 26 -72 3 -17 13
-36 21 -43 8 -6 14 -26 14 -43 0 -17 9 -51 20 -75 11 -24 20 -57 20 -75 0 -17
9 -48 20 -69 11 -20 20 -47 20 -59 0 -13 9 -36 20 -53 11 -16 20 -44 20 -61 0
-17 9 -43 20 -57 11 -14 20 -36 20 -49 0 -12 9 -43 20 -67 11 -24 20 -53 20
-66 0 -12 8 -33 19 -46 10 -13 21 -43 24 -67 3 -24 12 -51 21 -61 9 -10 16
-31 16 -48 0 -17 8 -41 19 -54 10 -13 21 -43 24 -67 3 -24 12 -51 21 -61 9
-10 16 -35 16 -55 0 -23 8 -48 20 -63 11 -14 20 -40 20 -57 0 -17 9 -44 20
-61 11 -16 20 -44 20 -61 0 -17 9 -42 19 -56 11 -13 23 -42 27 -64 4 -21 13
-48 20 -59 8 -11 14 -31 14 -45 0 -14 9 -43 20 -65 11 -22 20 -46 20 -55 0 -9
9 -33 20 -55 11 -22 20 -45 20 -52 0 -7 18 -57 40 -110 22 -54 40 -106 40
-117 0 -10 8 -35 19 -55 10 -20 23 -54 29 -76 5 -22 22 -71 36 -110 29 -76 60
-169 96 -285 154 -490 426 -759 839 -829 455 -77 837 73 1065 419 81 123 114
192 191 405 26 72 51 139 56 150 30 72 60 156 65 185 4 19 13 44 19 55 7 11
22 54 34 95 21 72 34 108 78 230 11 30 27 78 36 105 15 49 61 180 112 320 14
39 42 117 62 175 51 148 73 211 143 410 34 96 89 252 122 345 33 94 66 193 73
222 7 28 16 57 21 64 4 7 22 53 40 103 18 50 44 123 59 161 15 39 31 88 37
110 5 22 16 54 23 70 7 17 18 46 24 65 5 19 22 67 36 105 14 39 42 117 61 175
19 58 39 114 44 125 11 24 56 143 115 310 73 204 115 316 121 327 10 16 83
227 110 318 76 253 49 470 -78 631 -40 51 -158 151 -198 168 -14 6 -32 15 -40
20 -31 20 -129 61 -145 61 -9 0 -48 9 -86 21 -87 27 -342 25 -394 -3 -16 -8
-46 -18 -65 -22 -99 -18 -319 -167 -407 -275 -48 -58 -139 -236 -150 -292 -3
-19 -12 -43 -19 -54 -7 -11 -17 -38 -23 -60 -15 -59 -40 -136 -57 -170 -7 -16
-17 -46 -20 -65 -4 -19 -20 -73 -36 -120 -16 -47 -36 -107 -43 -135 -7 -27
-20 -67 -29 -87 -9 -21 -16 -50 -16 -66 0 -15 -4 -32 -9 -37 -6 -6 -17 -35
-25 -65 -24 -88 -46 -152 -67 -196 -10 -23 -19 -50 -19 -60 0 -11 -9 -37 -20
-59 -11 -22 -20 -48 -20 -60 0 -11 -7 -29 -15 -39 -8 -11 -15 -31 -15 -45 0
-14 -9 -44 -19 -66 -10 -22 -21 -58 -25 -80 -4 -22 -13 -49 -20 -60 -7 -11
-16 -38 -20 -60 -4 -22 -12 -45 -18 -52 -5 -6 -16 -40 -24 -74 -8 -35 -19 -68
-23 -73 -5 -6 -13 -29 -17 -51 -4 -22 -15 -56 -25 -75 -11 -19 -19 -48 -19
-65 0 -16 -9 -48 -19 -70 -37 -78 -51 -116 -57 -158 -4 -23 -15 -53 -26 -66
-11 -14 -18 -40 -18 -66 0 -25 -6 -48 -14 -54 -8 -7 -18 -31 -21 -54 -4 -23
-16 -56 -26 -73 -10 -17 -19 -44 -19 -60 0 -16 -7 -39 -15 -51 -8 -11 -17 -40
-21 -64 -4 -24 -12 -51 -19 -59 -7 -8 -15 -37 -19 -64 -3 -27 -12 -59 -20 -71
-8 -12 -19 -40 -26 -63 -15 -57 -53 -101 -73 -84 -16 13 -41 74 -56 137 -5 22
-16 58 -25 80 -8 22 -15 54 -16 71 0 17 -6 37 -14 43 -7 6 -16 32 -19 57 -2
24 -12 53 -21 63 -9 10 -16 28 -16 41 0 12 -8 37 -19 54 -10 17 -22 49 -26 71
-4 22 -11 45 -16 51 -5 7 -16 34 -23 60 -14 51 -27 88 -56 164 -9 25 -25 68
-34 95 -9 28 -57 172 -106 320 -49 149 -94 281 -99 295 -5 14 -23 70 -41 125
-17 55 -37 116 -45 135 -11 30 -39 115 -92 280 -8 25 -21 61 -28 80 -7 19 -20
55 -28 80 -141 441 -263 780 -297 829 -9 14 -39 58 -65 98 -111 170 -297 313
-475 365 -107 31 -145 39 -244 53 -171 23 -312 14 -437 -29 -24 -9 -51 -16
-58 -16 -39 0 -208 -99 -274 -160 -111 -103 -246 -289 -247 -342 0 -7 -12 -35
-25 -63 -14 -27 -25 -55 -25 -62 0 -7 -6 -27 -14 -45 -8 -18 -27 -73 -42 -123
-15 -49 -36 -108 -46 -130 -9 -22 -18 -54 -18 -70 0 -17 -5 -36 -11 -42 -6 -6
-17 -35 -24 -65 -14 -56 -25 -91 -56 -173 -11 -28 -19 -57 -19 -65 0 -9 -8
-31 -19 -50 -10 -19 -21 -52 -25 -74 -4 -21 -13 -52 -21 -70 -7 -17 -25 -71
-40 -121 -14 -49 -32 -106 -40 -125 -25 -66 -47 -135 -60 -193 -7 -32 -18 -64
-25 -72 -6 -7 -15 -35 -20 -62 -9 -53 -33 -126 -61 -189 -11 -23 -19 -52 -19
-65 0 -13 -9 -37 -20 -54 -11 -16 -20 -43 -20 -60 0 -16 -9 -43 -20 -60 -11
-16 -20 -44 -20 -60 0 -17 -6 -39 -14 -50 -7 -11 -16 -38 -20 -60 -4 -22 -16
-57 -27 -78 -10 -21 -19 -52 -19 -70 0 -18 -9 -49 -20 -70 -11 -20 -20 -50
-20 -67 0 -16 -9 -44 -20 -62 -11 -18 -20 -45 -20 -61 0 -15 -9 -44 -20 -64
-11 -21 -20 -50 -20 -66 0 -15 -6 -40 -14 -55 -7 -15 -17 -49 -21 -77 -4 -27
-13 -61 -20 -75 -7 -14 -16 -44 -20 -68 -12 -72 -95 -63 -95 10 0 11 -6 41
-14 67 -8 25 -19 64 -24 86 -12 46 -36 116 -57 162 -8 17 -15 39 -15 48 0 10
-8 32 -19 49 -10 17 -22 49 -26 70 -3 22 -13 49 -21 60 -8 11 -14 32 -14 46 0
14 -9 39 -20 55 -11 17 -20 40 -20 53 0 12 -9 40 -20 62 -11 22 -20 50 -20 62
0 13 -9 40 -20 61 -11 20 -20 44 -20 53 0 9 -7 30 -14 47 -19 40 -54 139 -68
192 -6 22 -17 47 -24 56 -8 8 -14 27 -14 40 0 14 -9 42 -20 64 -11 21 -23 55
-26 74 -4 20 -13 45 -19 56 -7 11 -16 38 -20 60 -4 22 -11 45 -17 52 -5 7 -16
34 -23 60 -24 84 -46 147 -61 175 -8 14 -14 39 -14 55 0 15 -9 43 -20 61 -11
18 -20 42 -20 53 0 11 -5 30 -12 42 -13 24 -53 133 -70 187 -5 19 -15 40 -20
47 -6 7 -14 27 -18 45 -8 35 -32 105 -60 178 -27 71 -51 142 -61 184 -5 21
-16 48 -24 60 -8 11 -15 28 -15 38 0 10 -21 68 -46 130 -26 62 -54 131 -63
153 -16 39 -34 71 -72 127 -11 15 -19 31 -19 36 0 15 -193 197 -241 228 -58
38 -137 74 -159 74 -10 0 -34 7 -54 15 -55 23 -257 46 -341 38z"/>
<path d="M16130 6806 c-245 -42 -447 -166 -530 -326 -65 -123 -91 -191 -110
-290 -17 -88 -11 -4626 6 -4700 8 -36 19 -84 24 -106 48 -220 255 -433 505
-519 450 -154 964 105 1059 534 l21 96 -3 2120 c-3 2535 -6 2637 -83 2761 -10
17 -19 38 -19 47 0 35 -181 237 -235 263 -16 7 -52 27 -80 43 -27 16 -63 30
-78 30 -16 1 -38 6 -50 13 -69 37 -303 55 -427 34z"/>
</g>
</svg>
